<svg width="19" height="11" viewBox="0 0 19 11" fill="none" xmlns="http://www.w3.org/2000/svg">
<path fill-rule="evenodd" clip-rule="evenodd" d="M7.81612 4.99007C8.21037 4.80694 8.50844 4.60297 8.71269 4.38256C9.07606 3.9856 9.25537 3.45925 9.25537 2.80679C9.25537 2.17187 9.07606 1.62907 8.71744 1.17399C8.11894 0.432707 7.106 0.0532924 5.67387 0.0335541H0V10.7284H5.29031C5.88644 10.7284 6.43863 10.6813 6.94925 10.5848C7.45988 10.4872 7.90162 10.3084 8.27569 10.0475C8.60819 9.82047 8.88606 9.53865 9.10694 9.20639C9.45606 8.70416 9.63062 8.13504 9.63062 7.50122C9.63062 6.88714 9.47744 6.36407 9.17344 5.93421C8.86587 5.50436 8.41463 5.18964 7.81612 4.99007ZM2.34056 1.89115H4.89606C5.45775 1.89115 5.92088 1.94707 6.28425 2.05783C6.70463 2.21902 6.91481 2.5469 6.91481 3.04694C6.91481 3.49544 6.7545 3.80906 6.43744 3.9856C6.118 4.16215 5.70356 4.25097 5.19531 4.25097H2.34056V1.89115ZM5.19175 8.87303C5.70119 8.87303 6.099 8.81053 6.38163 8.68442C6.897 8.44975 7.1535 8.00674 7.1535 7.34879C7.1535 6.79064 6.90531 6.40903 6.40656 6.20068C6.12631 6.08554 5.73444 6.02413 5.23094 6.02084H2.34056V8.87303H5.19175Z" fill="#444444"/>
<rect x="12.141" y="0.532486" width="5.03144" height="1.33124" fill="#444444"/>
<path fill-rule="evenodd" clip-rule="evenodd" d="M18.2269 4.15117C18.5856 4.6216 18.8159 5.1666 18.9204 5.78616C18.9822 6.14803 19.0059 6.67329 18.9964 7.35646H12.6706C12.7086 8.14928 13.0079 8.70634 13.5802 9.02434C13.927 9.22282 14.3426 9.32261 14.8331 9.32261C15.3484 9.32261 15.7688 9.20199 16.0918 8.96074C16.2699 8.82915 16.4255 8.64822 16.5597 8.41684H18.8777C18.8159 8.88508 18.5345 9.36209 18.0369 9.84677C17.2591 10.6144 16.1702 10.9993 14.7701 10.9993C13.6135 10.9993 12.5946 10.6758 11.7123 10.0266C10.8264 9.37854 10.3859 8.32254 10.3859 6.86081C10.3859 5.49009 10.7849 4.43848 11.5817 3.70706C12.3809 2.97784 13.414 2.61049 14.6858 2.61049C15.4434 2.60939 16.1239 2.7333 16.7283 2.98113C17.3351 3.22786 17.8339 3.61824 18.2269 4.15117ZM13.3332 4.76745C13.0126 5.06901 12.8107 5.47693 12.7276 5.99122H16.6404C16.5989 5.44184 16.3958 5.02624 16.036 4.74003C15.6714 4.45602 15.2237 4.31456 14.6882 4.31456C14.1075 4.31566 13.6539 4.46699 13.3332 4.76745Z" fill="#444444"/>
</svg>
