<svg width="15" height="15" viewBox="0 0 15 15" fill="none" xmlns="http://www.w3.org/2000/svg">
<path fill-rule="evenodd" clip-rule="evenodd" d="M7.5 0C3.35955 0 0 3.35955 0 7.5C0 11.6404 3.35955 15 7.5 15C11.6323 15 15 11.6404 15 7.5C15 3.35955 11.6323 0 7.5 0ZM12.4539 3.45715C13.3487 4.54717 13.8856 5.93818 13.9018 7.44306C13.6903 7.40238 11.5754 6.97126 9.44415 7.23969C9.39534 7.13396 9.35466 7.02006 9.30587 6.90618C9.17571 6.59707 9.02928 6.27982 8.88286 5.97885C11.2419 5.01898 12.3156 3.63612 12.4539 3.45715ZM7.5 1.10629C9.1269 1.10629 10.6155 1.71637 11.7462 2.71692C11.6323 2.87961 10.6643 4.173 8.38667 5.02711C7.33731 3.09924 6.17407 1.52115 5.99512 1.27711C6.47505 1.16323 6.97939 1.10629 7.5 1.10629ZM4.77495 1.70825C4.94577 1.936 6.0846 3.52224 7.15022 5.40944C4.15672 6.20661 1.51302 6.19035 1.22831 6.19035C1.64316 4.20553 2.98536 2.55423 4.77495 1.70825ZM1.09002 7.50813C1.09002 7.44306 1.09002 7.37799 1.09002 7.31291C1.36659 7.32104 4.47398 7.36172 7.67082 6.40185C7.85791 6.75977 8.02874 7.12581 8.19143 7.49187C8.11008 7.51627 8.02061 7.54068 7.93926 7.56507C4.63666 8.6307 2.87961 11.5428 2.73319 11.7869C1.71637 10.6562 1.09002 9.15131 1.09002 7.50813ZM7.5 13.91C6.01953 13.91 4.65293 13.4056 3.57103 12.5597C3.68493 12.3238 4.98645 9.81833 8.59815 8.55749C8.61442 8.54936 8.62255 8.54936 8.63883 8.54121C9.54175 10.8758 9.90781 12.8362 10.0054 13.3975C9.23265 13.731 8.38667 13.91 7.5 13.91ZM11.0711 12.8118C11.006 12.4214 10.6643 10.5504 9.82647 8.24838C11.8357 7.93113 13.5927 8.45174 13.8124 8.52495C13.5358 10.3064 12.5108 11.8438 11.0711 12.8118Z" fill="#444444"/>
</svg>
