<svg width="35" height="35" viewBox="0 0 35 35" fill="none" xmlns="http://www.w3.org/2000/svg">
<rect width="5" height="5" fill="#FF1229"/>
<rect y="5" width="5" height="5" fill="#FF1229"/>
<rect x="30" y="5" width="5" height="5" fill="#76C935"/>
<rect y="10" width="5" height="5" fill="#F9319D"/>
<rect x="30" y="10" width="5" height="5" fill="#76C935"/>
<rect y="15" width="5" height="5" fill="#F9319D"/>
<rect x="30" y="15" width="5" height="5" fill="#00BC47"/>
<rect y="20" width="5" height="5" fill="#AB316F"/>
<rect x="30" y="20" width="5" height="5" fill="#006D54"/>
<rect y="25" width="5" height="5" fill="#6F2963"/>
<rect x="30" y="25" width="5" height="5" fill="#444654"/>
<rect y="30" width="5" height="5" fill="#6F2963"/>
<rect x="30" y="30" width="5" height="5" fill="#434555"/>
<rect x="25" y="30" width="5" height="5" fill="#215AAF"/>
<rect x="20" y="30" width="5" height="5" fill="#215AAF"/>
<rect x="15" y="30" width="5" height="5" fill="#573785"/>
<rect x="10" y="30" width="5" height="5" fill="#573785"/>
<rect x="5" y="30" width="5" height="5" fill="#6F2963"/>
<rect x="5" width="5" height="5" fill="#FF7100"/>
<rect x="10" width="5" height="5" fill="#FF8A00"/>
<rect x="15" width="5" height="5" fill="#FFB406"/>
<rect x="20" width="5" height="5" fill="#FFD000"/>
<rect x="25" width="5" height="5" fill="#C7DE00"/>
<rect x="30" width="5" height="5" fill="#C7DE00"/>
</svg>
