<svg width="1002" height="456" viewBox="0 0 1002 456" fill="none" xmlns="http://www.w3.org/2000/svg">
<g filter="url(#filter0_d)">
<path fill-rule="evenodd" clip-rule="evenodd" d="M213.69 98.3151H249.813V294.135H213.69V277.63C203.609 290.498 188.768 298.051 168.326 298.051C130.803 298.051 100 265.881 100 224.199C100 182.518 130.803 150.347 168.326 150.347C188.768 150.347 203.609 157.9 213.69 170.768V98.3151ZM175.047 263.643C197.169 263.643 213.69 247.698 213.69 224.199C213.69 200.701 197.169 184.756 175.047 184.756C152.645 184.756 136.123 200.701 136.123 224.199C136.123 247.698 152.645 263.643 175.047 263.643ZM344.464 265.322C325.422 265.322 310.02 257.489 304.98 239.026H410.549C411.389 234.27 411.95 229.514 411.95 224.199C411.95 183.077 382.547 150.347 341.103 150.347C297.139 150.347 267.177 182.518 267.177 224.199C267.177 265.881 296.859 298.051 343.903 298.051C370.786 298.051 391.788 287.141 404.949 268.119L375.826 251.334C369.666 259.447 358.465 265.322 344.464 265.322ZM304.42 211.051H375.826C371.346 190.91 356.225 182.797 341.103 182.797C321.781 182.797 308.62 193.148 304.42 211.051ZM480.671 208.643C467.355 204.999 456.475 202.021 456.475 193.987C456.475 186.434 463.756 182.518 472.717 182.518C483.078 182.518 490.918 187.833 495.119 196.785L525.921 180C515 160.698 495.399 150.347 472.717 150.347C443.874 150.347 419.512 166.293 419.512 194.826C419.512 224.774 446.242 232.366 467.184 238.313C480.671 242.144 491.758 245.293 491.758 253.293C491.758 261.405 483.918 265.322 472.437 265.322C458.435 265.322 448.914 258.608 444.994 247.138L413.631 264.762C423.712 286.302 444.434 298.051 472.437 298.051C502.399 298.051 528.722 283.505 528.722 253.293C528.722 221.795 501.668 214.39 480.671 208.643ZM543.565 154.264H579.688V294.135H543.565V154.264ZM746.864 154.264H711.581V171.608C701.78 158.46 686.659 150.347 666.777 150.347C627.014 150.347 597.051 182.797 597.051 221.961C597.051 261.405 627.014 293.576 666.777 293.576C686.659 293.576 701.78 285.463 711.581 272.315V287.421C711.581 309.521 697.58 321.83 674.898 321.83C653.336 321.83 644.095 313.158 638.215 302.248L607.412 319.871C619.733 342.531 643.815 354 673.778 354C710.741 354 746.864 333.299 746.864 287.421V154.264ZM672.378 260.286C695.06 260.286 711.581 244.341 711.581 221.961C711.581 199.862 695.06 183.916 672.378 183.916C649.696 183.916 633.174 199.862 633.174 221.961C633.174 244.341 649.696 260.286 672.378 260.286ZM902 208.254C902 171.048 878.758 150.347 849.075 150.347C830.314 150.347 815.752 157.341 807.352 169.929V154.264H771.228V294.135H807.352V218.604C807.352 194.267 820.513 183.916 838.154 183.916C854.396 183.916 865.877 193.707 865.877 212.73V294.135H902V208.254Z" fill="white"/>
</g>
<rect x="544" y="108" width="5" height="5" fill="#FF1229"/>
<rect x="544" y="113" width="5" height="5" fill="#FF1229"/>
<rect x="574" y="113" width="5" height="5" fill="#76C935"/>
<rect x="544" y="118" width="5" height="5" fill="#F9319D"/>
<rect x="574" y="118" width="5" height="5" fill="#76C935"/>
<rect x="544" y="123" width="5" height="5" fill="#F9319D"/>
<rect x="574" y="123" width="5" height="5" fill="#00BC47"/>
<rect x="544" y="128" width="5" height="5" fill="#AB316F"/>
<rect x="574" y="128" width="5" height="5" fill="#006D54"/>
<rect x="544" y="133" width="5" height="5" fill="#6F2963"/>
<rect x="574" y="133" width="5" height="5" fill="#444654"/>
<rect x="544" y="138" width="5" height="5" fill="#6F2963"/>
<rect x="574" y="138" width="5" height="5" fill="#434555"/>
<rect x="569" y="138" width="5" height="5" fill="#215AAF"/>
<rect x="564" y="138" width="5" height="5" fill="#215AAF"/>
<rect x="559" y="138" width="5" height="5" fill="#573785"/>
<rect x="554" y="138" width="5" height="5" fill="#573785"/>
<rect x="549" y="138" width="5" height="5" fill="#6F2963"/>
<rect x="549" y="108" width="5" height="5" fill="#FF7100"/>
<rect x="554" y="108" width="5" height="5" fill="#FF8A00"/>
<rect x="559" y="108" width="5" height="5" fill="#FFB406"/>
<rect x="564" y="108" width="5" height="5" fill="#FFD000"/>
<rect x="569" y="108" width="5" height="5" fill="#C7DE00"/>
<rect x="574" y="108" width="5" height="5" fill="#C7DE00"/>
<defs>
<filter id="filter0_d" x="0" y="0.315109" width="1002" height="455.685" filterUnits="userSpaceOnUse" color-interpolation-filters="sRGB">
<feFlood flood-opacity="0" result="BackgroundImageFix"/>
<feColorMatrix in="SourceAlpha" type="matrix" values="0 0 0 0 0 0 0 0 0 0 0 0 0 0 0 0 0 0 127 0"/>
<feOffset dy="2"/>
<feGaussianBlur stdDeviation="50"/>
<feColorMatrix type="matrix" values="0 0 0 0 0 0 0 0 0 0 0 0 0 0 0 0 0 0 0.06 0"/>
<feBlend mode="normal" in2="BackgroundImageFix" result="effect1_dropShadow"/>
<feBlend mode="normal" in="SourceGraphic" in2="effect1_dropShadow" result="shape"/>
</filter>
</defs>
</svg>
