<svg width="15" height="15" viewBox="0 0 15 15" fill="none" xmlns="http://www.w3.org/2000/svg">
<mask id="path-1-inside-1" fill="white">
<path fill-rule="evenodd" clip-rule="evenodd" d="M14.5922 2.5898C14.7764 3.0645 14.905 3.61233 14.9401 4.40918C14.9751 5.20901 14.9781 5.46387 14.9781 7.5C14.9781 9.53613 14.9693 9.79099 14.9343 10.5908C14.8992 11.3877 14.7705 11.9326 14.5864 12.4102C14.1974 13.418 13.4021 14.2148 12.3962 14.6045C11.9226 14.7891 11.3758 14.9179 10.5805 14.9531C9.78224 14.9883 9.52787 14.997 7.49571 14.997C5.46354 14.997 5.20907 14.9883 4.41091 14.9531C3.6155 14.9179 3.07171 14.7891 2.59508 14.6045C2.098 14.417 1.64479 14.1211 1.27049 13.7402C0.890377 13.3652 0.595123 12.9141 0.405065 12.4102C0.220832 11.9355 0.0921081 11.3877 0.0570432 10.5908C0.0219784 9.79099 0.0131836 9.53613 0.0131836 7.5C0.0131836 5.46387 0.0219784 5.20901 0.0600129 4.4062C0.0950778 3.60935 0.223687 3.0645 0.40792 2.58694C0.595123 2.08889 0.890377 1.63479 1.27049 1.25977C1.64479 0.875931 2.09503 0.582962 2.59805 0.392532C3.07171 0.208054 3.61847 0.0790787 4.41377 0.0439453C5.21204 0.00881194 5.4664 0 7.49856 0C9.53073 0 9.78509 0.00881194 10.5863 0.0469208C11.3816 0.0820541 11.9255 0.210915 12.4021 0.395508C12.8991 0.582962 13.3523 0.878906 13.7266 1.25977C14.1097 1.63479 14.4021 2.08591 14.5922 2.5898ZM13.3349 11.9238C13.4372 11.6602 13.56 11.2646 13.5922 10.5322C13.6273 9.74121 13.6361 9.50684 13.6361 7.50584C13.6361 5.50484 13.6273 5.2676 13.5922 4.47659C13.56 3.74702 13.4372 3.34866 13.3349 3.08498C13.2149 2.75974 13.0249 2.46677 12.7763 2.22359C12.5366 1.97456 12.2412 1.78413 11.9167 1.66409C11.6536 1.56155 11.2588 1.43852 10.5278 1.40625C9.74123 1.37112 9.50446 1.3623 7.50439 1.3623C5.5074 1.3623 5.27052 1.37112 4.48104 1.40625C3.75302 1.43852 3.35531 1.56155 3.09215 1.66409C2.76755 1.78413 2.47515 1.97456 2.23255 2.22359C1.98104 2.46391 1.79098 2.75974 1.67106 3.08498C1.56872 3.34866 1.44593 3.74416 1.41384 4.47659C1.37866 5.26463 1.36998 5.50484 1.36998 7.50584C1.36998 9.50684 1.37866 9.74419 1.41384 10.5352C1.44593 11.2646 1.56872 11.6631 1.67106 11.9268C1.79098 12.2519 1.98104 12.5449 2.22958 12.7881C2.46932 13.0371 2.76469 13.2275 3.08918 13.3477C3.35234 13.4502 3.74708 13.5733 4.47807 13.6054C5.26469 13.6407 5.50443 13.6494 7.50153 13.6494C9.49863 13.6494 9.73541 13.6407 10.5249 13.6054C11.253 13.5733 11.6506 13.4502 11.9138 13.3477C12.5658 13.0957 13.0834 12.5772 13.3349 11.9238Z"/>
</mask>
<path fill-rule="evenodd" clip-rule="evenodd" d="M14.5922 2.5898C14.7764 3.0645 14.905 3.61233 14.9401 4.40918C14.9751 5.20901 14.9781 5.46387 14.9781 7.5C14.9781 9.53613 14.9693 9.79099 14.9343 10.5908C14.8992 11.3877 14.7705 11.9326 14.5864 12.4102C14.1974 13.418 13.4021 14.2148 12.3962 14.6045C11.9226 14.7891 11.3758 14.9179 10.5805 14.9531C9.78224 14.9883 9.52787 14.997 7.49571 14.997C5.46354 14.997 5.20907 14.9883 4.41091 14.9531C3.6155 14.9179 3.07171 14.7891 2.59508 14.6045C2.098 14.417 1.64479 14.1211 1.27049 13.7402C0.890377 13.3652 0.595123 12.9141 0.405065 12.4102C0.220832 11.9355 0.0921081 11.3877 0.0570432 10.5908C0.0219784 9.79099 0.0131836 9.53613 0.0131836 7.5C0.0131836 5.46387 0.0219784 5.20901 0.0600129 4.4062C0.0950778 3.60935 0.223687 3.0645 0.40792 2.58694C0.595123 2.08889 0.890377 1.63479 1.27049 1.25977C1.64479 0.875931 2.09503 0.582962 2.59805 0.392532C3.07171 0.208054 3.61847 0.0790787 4.41377 0.0439453C5.21204 0.00881194 5.4664 0 7.49856 0C9.53073 0 9.78509 0.00881194 10.5863 0.0469208C11.3816 0.0820541 11.9255 0.210915 12.4021 0.395508C12.8991 0.582962 13.3523 0.878906 13.7266 1.25977C14.1097 1.63479 14.4021 2.08591 14.5922 2.5898ZM13.3349 11.9238C13.4372 11.6602 13.56 11.2646 13.5922 10.5322C13.6273 9.74121 13.6361 9.50684 13.6361 7.50584C13.6361 5.50484 13.6273 5.2676 13.5922 4.47659C13.56 3.74702 13.4372 3.34866 13.3349 3.08498C13.2149 2.75974 13.0249 2.46677 12.7763 2.22359C12.5366 1.97456 12.2412 1.78413 11.9167 1.66409C11.6536 1.56155 11.2588 1.43852 10.5278 1.40625C9.74123 1.37112 9.50446 1.3623 7.50439 1.3623C5.5074 1.3623 5.27052 1.37112 4.48104 1.40625C3.75302 1.43852 3.35531 1.56155 3.09215 1.66409C2.76755 1.78413 2.47515 1.97456 2.23255 2.22359C1.98104 2.46391 1.79098 2.75974 1.67106 3.08498C1.56872 3.34866 1.44593 3.74416 1.41384 4.47659C1.37866 5.26463 1.36998 5.50484 1.36998 7.50584C1.36998 9.50684 1.37866 9.74419 1.41384 10.5352C1.44593 11.2646 1.56872 11.6631 1.67106 11.9268C1.79098 12.2519 1.98104 12.5449 2.22958 12.7881C2.46932 13.0371 2.76469 13.2275 3.08918 13.3477C3.35234 13.4502 3.74708 13.5733 4.47807 13.6054C5.26469 13.6407 5.50443 13.6494 7.50153 13.6494C9.49863 13.6494 9.73541 13.6407 10.5249 13.6054C11.253 13.5733 11.6506 13.4502 11.9138 13.3477C12.5658 13.0957 13.0834 12.5772 13.3349 11.9238Z" fill="#444444"/>
<path d="M14.9401 4.40918L15.04 4.4048L15.04 4.40478L14.9401 4.40918ZM14.5922 2.5898L14.4986 2.62509L14.499 2.62598L14.5922 2.5898ZM14.9343 10.5908L15.0342 10.5952L15.0342 10.5952L14.9343 10.5908ZM14.5864 12.4102L14.6796 12.4462L14.6797 12.4462L14.5864 12.4102ZM12.3962 14.6045L12.3601 14.5112L12.3599 14.5113L12.3962 14.6045ZM10.5805 14.9531L10.5849 15.053L10.5849 15.053L10.5805 14.9531ZM4.41091 14.9531L4.4065 15.053L4.4065 15.053L4.41091 14.9531ZM2.59508 14.6045L2.63119 14.5112L2.63036 14.5109L2.59508 14.6045ZM1.27049 13.7402L1.34183 13.6701L1.34073 13.669L1.27049 13.7402ZM0.405065 12.4102L0.498635 12.3749L0.49829 12.374L0.405065 12.4102ZM0.0570432 10.5908L-0.0428608 10.5952L-0.0428601 10.5952L0.0570432 10.5908ZM0.0600129 4.4062L0.159901 4.41094L0.159916 4.4106L0.0600129 4.4062ZM0.40792 2.58694L0.501222 2.62293L0.501526 2.62212L0.40792 2.58694ZM1.27049 1.25977L1.34074 1.33097L1.34209 1.32958L1.27049 1.25977ZM2.59805 0.392532L2.63345 0.486059L2.63434 0.485714L2.59805 0.392532ZM4.41377 0.0439453L4.40937 -0.055958L4.40936 -0.0559573L4.41377 0.0439453ZM10.5863 0.0469208L10.5816 0.146808L10.5819 0.146823L10.5863 0.0469208ZM12.4021 0.395508L12.3659 0.488759L12.3668 0.489076L12.4021 0.395508ZM13.7266 1.25977L13.6553 1.32987L13.6567 1.33122L13.7266 1.25977ZM13.5922 10.5322L13.4923 10.5278L13.4923 10.5278L13.5922 10.5322ZM13.3349 11.9238L13.2416 11.8876L13.2415 11.8879L13.3349 11.9238ZM13.5922 4.47659L13.4923 4.481L13.4923 4.48101L13.5922 4.47659ZM13.3349 3.08498L13.241 3.11959L13.2416 3.12117L13.3349 3.08498ZM12.7763 2.22359L12.7043 2.29297L12.7064 2.29506L12.7763 2.22359ZM11.9167 1.66409L11.8804 1.75728L11.882 1.75787L11.9167 1.66409ZM10.5278 1.40625L10.5234 1.50615L10.5234 1.50615L10.5278 1.40625ZM4.48104 1.40625L4.48547 1.50615L4.48549 1.50615L4.48104 1.40625ZM3.09215 1.66409L3.12685 1.75789L3.12846 1.75726L3.09215 1.66409ZM2.23255 2.22359L2.30168 2.29593L2.30418 2.29337L2.23255 2.22359ZM1.67106 3.08498L1.76429 3.12117L1.76488 3.11958L1.67106 3.08498ZM1.41384 4.47659L1.51374 4.48105L1.51374 4.48096L1.41384 4.47659ZM1.41384 10.5352L1.51374 10.5308L1.51374 10.5308L1.41384 10.5352ZM1.67106 11.9268L1.76489 11.8922L1.76428 11.8906L1.67106 11.9268ZM2.22958 12.7881L2.30165 12.7187L2.29952 12.7166L2.22958 12.7881ZM3.08918 13.3477L3.1255 13.2545L3.12391 13.2539L3.08918 13.3477ZM4.47807 13.6054L4.48255 13.5055L4.48247 13.5055L4.47807 13.6054ZM10.5249 13.6054L10.5205 13.5055L10.5204 13.5055L10.5249 13.6054ZM11.9138 13.3477L11.8777 13.2544L11.8775 13.2545L11.9138 13.3477ZM15.04 4.40478C15.0045 3.59821 14.874 3.03952 14.6854 2.55362L14.499 2.62598C14.6788 3.08948 14.8055 3.62644 14.8402 4.41358L15.04 4.40478ZM15.0781 7.5C15.0781 5.46398 15.0752 5.20709 15.04 4.4048L14.8402 4.41356C14.8751 5.21093 14.8781 5.46376 14.8781 7.5H15.0781ZM15.0342 10.5952C15.0693 9.79321 15.0781 9.53665 15.0781 7.5H14.8781C14.8781 9.53561 14.8693 9.78878 14.8344 10.5864L15.0342 10.5952ZM14.6797 12.4462C14.868 11.9576 14.9987 11.4019 15.0342 10.5952L14.8344 10.5864C14.7997 11.3734 14.6729 11.9076 14.493 12.3742L14.6797 12.4462ZM12.4323 14.6977C13.4646 14.2979 14.2806 13.4802 14.6796 12.4462L14.4931 12.3742C14.1143 13.3557 13.3397 14.1318 12.3601 14.5112L12.4323 14.6977ZM10.5849 15.053C11.39 15.0174 11.9476 14.8866 12.4325 14.6977L12.3599 14.5113C11.8975 14.6915 11.3616 14.8185 10.5761 14.8532L10.5849 15.053ZM7.49571 15.097C9.52838 15.097 9.78446 15.0883 10.5849 15.053L10.5761 14.8532C9.78001 14.8883 9.52736 14.897 7.49571 14.897V15.097ZM4.4065 15.053C5.20685 15.0883 5.46303 15.097 7.49571 15.097V14.897C5.46406 14.897 5.21129 14.8883 4.41532 14.8532L4.4065 15.053ZM2.55896 14.6977C3.04661 14.8866 3.60122 15.0174 4.4065 15.053L4.41533 14.8532C3.62978 14.8185 3.0968 14.6916 2.63119 14.5112L2.55896 14.6977ZM1.19917 13.8103C1.58355 14.2015 2.04904 14.5054 2.55979 14.6981L2.63036 14.5109C2.14697 14.3286 1.70602 14.0407 1.34182 13.6701L1.19917 13.8103ZM0.3115 12.4455C0.506707 12.963 0.809975 13.4264 1.20026 13.8114L1.34073 13.669C0.970778 13.3041 0.68354 12.8651 0.49863 12.3749L0.3115 12.4455ZM-0.0428601 10.5952C-0.00736697 11.4018 0.123265 11.9605 0.31184 12.4464L0.49829 12.374C0.318398 11.9105 0.191583 11.3735 0.156947 10.5864L-0.0428601 10.5952ZM-0.0868164 7.5C-0.0868164 9.53665 -0.0780206 9.79321 -0.0428608 10.5952L0.156947 10.5864C0.121977 9.78878 0.113184 9.53561 0.113184 7.5H-0.0868164ZM-0.0398751 4.40147C-0.0780222 5.20665 -0.0868164 5.46337 -0.0868164 7.5H0.113184C0.113184 5.46436 0.121979 5.21136 0.159901 4.41094L-0.0398751 4.40147ZM0.314622 2.55094C0.126149 3.0395 -0.00439302 3.59513 -0.0398904 4.40181L0.159916 4.4106C0.194549 3.62358 0.321225 3.0895 0.501219 2.62293L0.314622 2.55094ZM1.20026 1.18858C0.809891 1.57372 0.506637 2.04009 0.314314 2.55175L0.501526 2.62212C0.68361 2.13769 0.970862 1.69586 1.34073 1.33095L1.20026 1.18858ZM2.56264 0.29901C2.0462 0.494522 1.58354 0.795498 1.1989 1.18995L1.34209 1.32958C1.70603 0.956364 2.14386 0.671402 2.63345 0.486055L2.56264 0.29901ZM4.40936 -0.0559573C3.60429 -0.0203922 3.04663 0.110506 2.56176 0.29935L2.63434 0.485714C3.09679 0.305601 3.63265 0.17855 4.41818 0.143848L4.40936 -0.0559573ZM7.49856 -0.1C5.46588 -0.1 5.20981 -0.091187 4.40937 -0.055958L4.41817 0.143849C5.21426 0.108811 5.46692 0.1 7.49856 0.1V-0.1ZM10.5911 -0.0529663C9.78746 -0.0911886 9.53123 -0.1 7.49856 -0.1V0.1C9.53023 0.1 9.78273 0.108813 10.5816 0.146808L10.5911 -0.0529663ZM12.4382 0.30226C11.9506 0.113395 11.3959 -0.0174126 10.5907 -0.0529818L10.5819 0.146823C11.3673 0.181521 11.9004 0.308434 12.3659 0.488756L12.4382 0.30226ZM13.798 1.18967C13.4136 0.79855 12.9481 0.494553 12.4373 0.30194L12.3668 0.489076C12.8502 0.671371 13.2911 0.959263 13.6553 1.32986L13.798 1.18967ZM14.6857 2.55451C14.4906 2.03724 14.1903 1.5737 13.7966 1.18831L13.6567 1.33122C14.0292 1.69587 14.3136 2.13459 14.4986 2.62509L14.6857 2.55451ZM13.4923 10.5278C13.4606 11.249 13.3402 11.6338 13.2416 11.8876L13.4281 11.96C13.5343 11.6865 13.6594 11.2803 13.6921 10.5366L13.4923 10.5278ZM13.5361 7.50584C13.5361 9.50627 13.5273 9.73895 13.4923 10.5278L13.6921 10.5367C13.7273 9.74347 13.7361 9.5074 13.7361 7.50584H13.5361ZM13.4923 4.48101C13.5273 5.26986 13.5361 5.5054 13.5361 7.50584H13.7361C13.7361 5.50427 13.7273 5.26534 13.6921 4.47216L13.4923 4.48101ZM13.2416 3.12117C13.3401 3.37495 13.4606 3.7626 13.4923 4.481L13.6921 4.47217C13.6594 3.73145 13.5343 3.32237 13.4281 3.0488L13.2416 3.12117ZM12.7064 2.29506C12.9444 2.52793 13.1263 2.80832 13.241 3.11958L13.4287 3.05039C13.3036 2.71117 13.1054 2.40562 12.8463 2.15211L12.7064 2.29506ZM11.882 1.75787C12.1929 1.87286 12.4753 2.05511 12.7043 2.29294L12.8484 2.15423C12.5979 1.89402 12.2896 1.69541 11.9514 1.5703L11.882 1.75787ZM10.5234 1.50615C11.2432 1.53793 11.6271 1.65857 11.8804 1.75726L11.953 1.57091C11.68 1.46452 11.2745 1.33912 10.5323 1.30635L10.5234 1.50615ZM7.50439 1.4623C9.5039 1.4623 9.73896 1.47111 10.5234 1.50615L10.5323 1.30635C9.7435 1.27112 9.50501 1.2623 7.50439 1.2623V1.4623ZM4.48549 1.50615C5.27278 1.47111 5.50797 1.4623 7.50439 1.4623V1.2623C5.50684 1.2623 5.26825 1.27112 4.4766 1.30635L4.48549 1.50615ZM3.12846 1.75726C3.3817 1.65859 3.76865 1.53793 4.48547 1.50615L4.47661 1.30635C3.73739 1.33912 3.32893 1.4645 3.05585 1.57091L3.12846 1.75726ZM2.30418 2.29337C2.53647 2.05492 2.81627 1.87273 3.12684 1.75788L3.05747 1.57029C2.71882 1.69553 2.41383 1.8942 2.16092 2.15381L2.30418 2.29337ZM1.76488 3.11958C1.87977 2.80802 2.0616 2.52525 2.30164 2.29589L2.16347 2.15129C1.90049 2.40257 1.7022 2.71147 1.57723 3.05039L1.76488 3.11958ZM1.51374 4.48096C1.54534 3.75977 1.66576 3.37499 1.76428 3.12117L1.57783 3.0488C1.47167 3.32232 1.34652 3.72856 1.31393 4.47221L1.51374 4.48096ZM1.46998 7.50584C1.46998 5.50538 1.47866 5.26688 1.51374 4.48105L1.31394 4.47213C1.27866 5.26237 1.26998 5.5043 1.26998 7.50584H1.46998ZM1.51374 10.5308C1.47866 9.74193 1.46998 9.50629 1.46998 7.50584H1.26998C1.26998 9.50739 1.27866 9.74644 1.31394 10.5396L1.51374 10.5308ZM1.76428 11.8906C1.66578 11.6368 1.54534 11.2491 1.51374 10.5308L1.31393 10.5396C1.34652 11.2802 1.47165 11.6894 1.57783 11.963L1.76428 11.8906ZM2.29952 12.7166C2.06152 12.4837 1.87965 12.2033 1.76488 11.8922L1.57723 11.9614C1.70232 12.3005 1.90056 12.6061 2.15964 12.8596L2.29952 12.7166ZM3.12391 13.2539C2.81308 13.1388 2.53059 12.9566 2.30162 12.7187L2.15754 12.8574C2.40806 13.1177 2.71631 13.3163 3.05446 13.4415L3.12391 13.2539ZM4.48247 13.5055C3.76275 13.4739 3.37877 13.3532 3.12549 13.2545L3.05288 13.4409C3.32591 13.5473 3.73141 13.6727 4.47368 13.7053L4.48247 13.5055ZM7.50153 13.5494C5.50498 13.5494 5.26696 13.5407 4.48255 13.5055L4.4736 13.7053C5.26242 13.7407 5.50389 13.7494 7.50153 13.7494V13.5494ZM10.5204 13.5055C9.73314 13.5407 9.49808 13.5494 7.50153 13.5494V13.7494C9.49918 13.7494 9.73767 13.7407 10.5293 13.7053L10.5204 13.5055ZM11.8775 13.2545C11.6242 13.3532 11.2374 13.4739 10.5205 13.5055L10.5293 13.7053C11.2686 13.6727 11.677 13.5473 11.9501 13.4409L11.8775 13.2545ZM13.2415 11.8879C13.0002 12.5149 12.5034 13.0126 11.8777 13.2544L11.9498 13.441C12.6283 13.1788 13.1666 12.6394 13.4282 11.9598L13.2415 11.8879Z" fill="#444444" mask="url(#path-1-inside-1)"/>
<mask id="path-3-inside-2" fill="white">
<path fill-rule="evenodd" clip-rule="evenodd" d="M3.65344 7.5C3.65344 5.373 5.37573 3.64746 7.49847 3.64746C9.62132 3.64746 11.3435 5.373 11.3435 7.5C11.3435 9.627 9.62132 11.3525 7.49847 11.3525C5.37573 11.3525 3.65344 9.627 3.65344 7.5ZM5.0043 7.5C5.0043 8.87993 6.12135 9.99905 7.49847 9.99905C8.87571 9.99905 9.99265 8.87993 9.99265 7.5C9.99265 6.12007 8.87571 5.00095 7.49847 5.00095C6.12135 5.00095 5.0043 6.12007 5.0043 7.5Z"/>
</mask>
<path fill-rule="evenodd" clip-rule="evenodd" d="M3.65344 7.5C3.65344 5.373 5.37573 3.64746 7.49847 3.64746C9.62132 3.64746 11.3435 5.373 11.3435 7.5C11.3435 9.627 9.62132 11.3525 7.49847 11.3525C5.37573 11.3525 3.65344 9.627 3.65344 7.5ZM5.0043 7.5C5.0043 8.87993 6.12135 9.99905 7.49847 9.99905C8.87571 9.99905 9.99265 8.87993 9.99265 7.5C9.99265 6.12007 8.87571 5.00095 7.49847 5.00095C6.12135 5.00095 5.0043 6.12007 5.0043 7.5Z" fill="#444444"/>
<path d="M7.49847 3.54746C5.32032 3.54746 3.55344 5.31795 3.55344 7.5H3.75344C3.75344 5.42805 5.43114 3.74746 7.49847 3.74746V3.54746ZM11.4435 7.5C11.4435 5.31796 9.67674 3.54746 7.49847 3.54746V3.74746C9.56591 3.74746 11.2435 5.42805 11.2435 7.5H11.4435ZM7.49847 11.4525C9.67674 11.4525 11.4435 9.68204 11.4435 7.5H11.2435C11.2435 9.57195 9.56591 11.2525 7.49847 11.2525V11.4525ZM3.55344 7.5C3.55344 9.68205 5.32032 11.4525 7.49847 11.4525V11.2525C5.43114 11.2525 3.75344 9.57195 3.75344 7.5H3.55344ZM7.49847 9.89905C6.17676 9.89905 5.1043 8.82488 5.1043 7.5H4.9043C4.9043 8.93498 6.06594 10.099 7.49847 10.099V9.89905ZM9.89265 7.5C9.89265 8.82488 8.8203 9.89905 7.49847 9.89905V10.099C8.93112 10.099 10.0926 8.93497 10.0926 7.5H9.89265ZM7.49847 5.10095C8.8203 5.10095 9.89265 6.17512 9.89265 7.5H10.0926C10.0926 6.06503 8.93112 4.90095 7.49847 4.90095V5.10095ZM5.1043 7.5C5.1043 6.17512 6.17676 5.10095 7.49847 5.10095V4.90095C6.06594 4.90095 4.9043 6.06502 4.9043 7.5H5.1043Z" fill="#444444" mask="url(#path-3-inside-2)"/>
<path d="M12.3433 3.49514C12.3433 3.96429 11.9637 4.34453 11.4955 4.34453C11.0275 4.34453 10.6479 3.96429 10.6479 3.49514C10.6479 3.02588 11.0275 2.64575 11.4955 2.64575C11.9637 2.64575 12.3433 3.02588 12.3433 3.49514Z" fill="#444444" stroke="#444444" stroke-width="0.1"/>
</svg>
