<svg width="14" height="14" viewBox="0 0 14 14" fill="none" xmlns="http://www.w3.org/2000/svg">
<path d="M13.9965 14V13.9994H14V8.86492C14 6.35308 13.4592 4.41817 10.5227 4.41817C9.11107 4.41817 8.16374 5.19283 7.77699 5.92725H7.73615V4.65267H4.9519V13.9994H7.85107V9.37125C7.85107 8.15267 8.08207 6.97433 9.59115 6.97433C11.0781 6.97433 11.1002 8.365 11.1002 9.44942V14H13.9965Z" fill="#444444"/>
<path d="M0.230957 4.65324H3.13362V14H0.230957L0.230957 4.65324Z" fill="#444444"/>
<path d="M1.68117 0C0.753083 0 0 0.753083 0 1.68117C0 2.60925 0.753083 3.37808 1.68117 3.37808C2.60925 3.37808 3.36233 2.60925 3.36233 1.68117C3.36175 0.753083 2.60867 0 1.68117 0Z" fill="#444444"/>
</svg>
