<svg width="28" height="18" viewBox="0 0 28 18" fill="none" xmlns="http://www.w3.org/2000/svg">
<path d="M21 0V18H16.2091V10.4348C16.2091 8.86957 16.2091 6.54783 16.2624 4.72174C15.943 6.54783 15.4106 8.84348 14.9848 10.4348L12.962 18H8.03802L5.98859 10.4348C5.56274 8.86957 5.03042 6.54783 4.73764 4.72174C4.79087 6.54783 4.79087 8.86957 4.79087 10.4348V18H0V0H7.47909L10.5932 13.4348L13.7072 0H21Z" fill="black"/>
<path fill-rule="evenodd" clip-rule="evenodd" d="M25.5 13C26.975 13 28 14.025 28 15.5C28 16.975 26.975 18 25.5 18C24.025 18 23 16.975 23 15.5C23 14.025 24.025 13 25.5 13Z" fill="black"/>
</svg>
