<svg width="42" height="42" viewBox="0 0 42 42" fill="none" xmlns="http://www.w3.org/2000/svg">
<path fill-rule="evenodd" clip-rule="evenodd" d="M21 1C32.0457 1.00001 41 9.95431 41 21C41 32.0457 32.0457 41 21 41C9.9543 41 1 32.0457 1 21C1.00001 9.9543 9.95431 1 21 1Z" fill="white" stroke="#C5C5C5"/>
<path d="M23.2652 26.8118C23.0372 27.0627 22.6579 27.0627 22.4221 26.8118C22.1942 26.5693 22.1942 26.1657 22.4221 25.9238L26.697 21.3755L12.5902 21.3755C12.2614 21.375 12 21.0969 12 20.747C12 20.3971 12.2614 20.11 12.5902 20.11L26.697 20.11L22.4221 15.5702C22.1942 15.3192 22.1942 14.9151 22.4221 14.6732C22.6579 14.4222 23.0378 14.4222 23.2652 14.6732L28.5522 20.2982C28.788 20.5407 28.788 20.9443 28.5522 21.1862L23.2652 26.8118Z" fill="#C5C5C5"/>
</svg>
