<svg width="42" height="42" viewBox="0 0 42 42" fill="none" xmlns="http://www.w3.org/2000/svg">
<path fill-rule="evenodd" clip-rule="evenodd" d="M21 0.999998C9.95431 0.999997 1 9.9543 1 21C1 32.0457 9.9543 41 21 41C32.0457 41 41 32.0457 41 21C41 9.9543 32.0457 0.999999 21 0.999998Z" fill="white" stroke="#0057FF"/>
<path d="M17.7348 26.8118C17.9628 27.0627 18.3421 27.0627 18.5779 26.8118C18.8058 26.5693 18.8058 26.1657 18.5779 25.9238L14.303 21.3755L28.4098 21.3755C28.7386 21.375 29 21.0969 29 20.747C29 20.3971 28.7386 20.11 28.4098 20.11L14.303 20.11L18.5779 15.5702C18.8058 15.3192 18.8058 14.9151 18.5779 14.6732C18.3421 14.4222 17.9622 14.4222 17.7348 14.6732L12.4478 20.2982C12.212 20.5407 12.212 20.9443 12.4478 21.1862L17.7348 26.8118Z" fill="#0057FF"/>
</svg>
