<svg width="42" height="42" viewBox="0 0 42 42" fill="none" xmlns="http://www.w3.org/2000/svg">
<path fill-rule="evenodd" clip-rule="evenodd" d="M21 41C32.0457 41 41 32.0457 41 21C41 9.9543 32.0457 1 21 1C9.9543 1 1 9.9543 1 21C1 32.0457 9.9543 41 21 41Z" fill="white" stroke="#0057FF"/>
<path d="M24.2652 15.1882C24.0372 14.9373 23.6579 14.9373 23.4221 15.1882C23.1942 15.4307 23.1942 15.8343 23.4221 16.0762L27.697 20.6245H13.5902C13.2614 20.625 13 20.9031 13 21.253C13 21.6029 13.2614 21.89 13.5902 21.89H27.697L23.4221 26.4298C23.1942 26.6808 23.1942 27.0849 23.4221 27.3268C23.6579 27.5778 24.0378 27.5778 24.2652 27.3268L29.5522 21.7018C29.788 21.4593 29.788 21.0557 29.5522 20.8138L24.2652 15.1882Z" fill="#0057FF"/>
</svg>
