<svg width="26" height="24" viewBox="0 0 26 24" fill="none" xmlns="http://www.w3.org/2000/svg">
<path fill-rule="evenodd" clip-rule="evenodd" d="M9.42383 23.4375V13.2324H4.83398C4.93164 10.4004 5.40364 8.24382 6.25 6.7627C7.09636 5.28157 8.4147 4.16667 10.2051 3.41797L8.05664 0C5.09439 1.33464 2.92969 3.30402 1.5625 5.9082C0.520828 7.86134 0 11.0189 0 15.3809V23.4375H9.42383ZM24.5605 23.4375V13.2324H19.9707C20.0684 10.4004 20.5404 8.24382 21.3867 6.7627C22.2331 5.28157 23.5514 4.16667 25.3418 3.41797L23.1934 0C20.2311 1.33464 18.0664 3.30402 16.6992 5.9082C15.6575 7.86134 15.1367 11.0189 15.1367 15.3809V23.4375H24.5605Z" fill="#0057FF"/>
</svg>
