<svg width="42" height="42" viewBox="0 0 42 42" fill="none" xmlns="http://www.w3.org/2000/svg">
<path fill-rule="evenodd" clip-rule="evenodd" d="M21 41C9.9543 41 1 32.0457 1 21C1 9.9543 9.9543 1 21 1C32.0457 1 41 9.9543 41 21C41 32.0457 32.0457 41 21 41Z" fill="white" stroke="#C5C5C5"/>
<path d="M18.7348 15.1882C18.9628 14.9373 19.3421 14.9373 19.5779 15.1882C19.8058 15.4307 19.8058 15.8343 19.5779 16.0762L15.303 20.6245H29.4098C29.7386 20.625 30 20.9031 30 21.253C30 21.6029 29.7386 21.89 29.4098 21.89H15.303L19.5779 26.4298C19.8058 26.6808 19.8058 27.0849 19.5779 27.3268C19.3421 27.5778 18.9622 27.5778 18.7348 27.3268L13.4478 21.7018C13.212 21.4593 13.212 21.0557 13.4478 20.8138L18.7348 15.1882Z" fill="#C5C5C5"/>
</svg>
